<svg width="24" height="24" viewBox="0 0 24 24" fill="none" xmlns="http://www.w3.org/2000/svg">
<path d="M12.4723 18.499C12.181 18.3456 11.8329 18.3454 11.5415 18.4985L7.62018 20.5581C6.88653 20.9435 6.02942 20.3205 6.16959 19.5037L6.91793 15.143C6.97368 14.8182 6.86576 14.4867 6.62942 14.2569L3.45621 11.1718C2.86133 10.5934 3.18892 9.58394 4.01007 9.46511L8.38952 8.83132C8.71535 8.78417 8.9971 8.57966 9.14289 8.28448L11.1035 4.3151C11.4704 3.57226 12.5297 3.57222 12.8966 4.31504L14.8571 8.28353C15.0029 8.57868 15.2846 8.78317 15.6104 8.83032L19.9904 9.46418C20.8115 9.583 21.1392 10.5923 20.5445 11.1707L17.3704 14.2579C17.1342 14.4877 17.0263 14.8191 17.0821 15.1439L17.8299 19.5013C17.9702 20.3185 17.1122 20.9416 16.3785 20.5553L12.4723 18.499Z" fill="#CDF3F9" stroke="#CDF3F9" stroke-width="2" stroke-linecap="round" stroke-linejoin="round"/>
</svg>
